HIERARCHY
ROOT root
{
	OFFSET 0.000000 0.000000 0.000000
	CHANNELS 6 Xposition Yposition Zposition Zrotation Yrotation Xrotation
	JOINT lhip
	{
		OFFSET 0.058581 -0.082280 -0.017664
		CHANNELS 3 Zrotation Yrotation Xrotation
		JOINT lknee
		{
			OFFSET 0.043451 -0.386469 0.008037
			CHANNELS 3 Zrotation Yrotation Xrotation
			JOINT lankle
			{
				OFFSET -0.014790 -0.426874 -0.037428
				CHANNELS 3 Zrotation Yrotation Xrotation
				JOINT ltoe
				{
					OFFSET 0.041054 -0.060286 0.122042
					CHANNELS 3 Zrotation Yrotation Xrotation
					End Site
					{
						OFFSET 0.000000 0.000000 0.000000
					}
				}
			}
		}
	}
	JOINT rhip
	{
		OFFSET -0.060310 -0.090513 -0.013543
		CHANNELS 3 Zrotation Yrotation Xrotation
		JOINT rknee
		{
			OFFSET -0.043257 -0.383688 -0.004843
			CHANNELS 3 Zrotation Yrotation Xrotation
			JOINT rankle
			{
				OFFSET 0.019056 -0.420046 -0.034562
				CHANNELS 3 Zrotation Yrotation Xrotation
				JOINT rtoe
				{
					OFFSET -0.034840 -0.062106 0.130323
					CHANNELS 3 Zrotation Yrotation Xrotation
					End Site
					{
						OFFSET 0.000000 0.000000 0.000000
					}
				}
			}
		}
	}
	JOINT lowerback
	{
		OFFSET 0.004439 0.124404 -0.038385
		CHANNELS 3 Zrotation Yrotation Xrotation
		JOINT upperback
		{
			OFFSET 0.004488 0.137956 0.026820
			CHANNELS 3 Zrotation Yrotation Xrotation
			JOINT chest
			{
				OFFSET -0.002265 0.056032 0.002855
				CHANNELS 3 Zrotation Yrotation Xrotation
				JOINT lowerneck
				{
					OFFSET -0.013390 0.211636 -0.033468
					CHANNELS 3 Zrotation Yrotation Xrotation
					JOINT upperneck
					{
						OFFSET 0.010113 0.088937 0.050410
						CHANNELS 3 Zrotation Yrotation Xrotation
						End Site
						{
							OFFSET 0.000000 0.000000 0.000000
						}
					}
				}
				JOINT lclavicle
				{
					OFFSET 0.071702 0.114000 -0.018898
					CHANNELS 3 Zrotation Yrotation Xrotation
					JOINT lshoulder
					{
						OFFSET 0.122921 0.045205 -0.019046
						CHANNELS 3 Zrotation Yrotation Xrotation
						JOINT lelbow
						{
							OFFSET 0.255332 -0.015649 -0.022946
							CHANNELS 3 Zrotation Yrotation Xrotation
							JOINT lwrist
							{
								OFFSET 0.265709 0.012698 -0.007375
								CHANNELS 3 Zrotation Yrotation Xrotation
								End Site
								{
									OFFSET 0.000000 0.000000 0.000000
								}
							}
						}
					}
				}
				JOINT rclavicle
				{
					OFFSET -0.082954 0.112472 -0.023707
					CHANNELS 3 Zrotation Yrotation Xrotation
					JOINT rshoulder
					{
						OFFSET -0.113228 0.046853 -0.008472
						CHANNELS 3 Zrotation Yrotation Xrotation
						JOINT relbow
						{
							OFFSET -0.260127 -0.014369 -0.031269
							CHANNELS 3 Zrotation Yrotation Xrotation
							JOINT rwrist
							{
								OFFSET -0.269108 0.006794 -0.006027
								CHANNELS 3 Zrotation Yrotation Xrotation
								End Site
								{
									OFFSET 0.000000 0.000000 0.000000
								}
							}
						}
					}
				}
			}
		}
	}
}
MOTION
Frames: 10
Frame Time: 0.033333
-0.155752 0.183248 0.922905 120.609113 -27.248258 130.477178 1.436939 0.054746 -21.990933 -7.205416 -10.359345 25.528067 -13.072601 4.094853 12.148835 0.000000 -0.000000 0.000000 -26.625088 -13.351280 -73.172777 -4.151476 -13.780621 47.404045 -0.842958 -11.380293 -16.708273 0.000000 -0.000000 0.000000 16.583903 -12.673451 48.760805 -2.080822 8.322448 3.826367 6.515184 1.502880 4.068388 -1.369517 -21.904113 -0.759593 4.320985 0.182723 -19.103301 -9.789927 -20.296539 -3.327846 -68.912007 -14.149193 23.847386 23.074616 -79.012491 7.337880 6.283338 -2.110791 -18.905985 -15.044133 32.954084 -4.117330 -14.422173 16.222864 -34.391935 -2.039329 12.431684 -15.283988 -11.881091 11.790998 15.126860 
-0.151429 0.181945 0.917466 120.166231 -27.246397 131.784590 1.471111 -0.461265 -22.072918 -7.422818 -10.375397 25.755408 -13.537997 4.202523 12.086735 0.000000 -0.000000 0.000000 -26.658666 -13.477604 -74.752820 -4.103274 -13.904997 48.647166 -0.728012 -11.305685 -17.428190 0.000000 -0.000000 0.000000 16.928654 -12.914379 48.872178 -2.317660 8.878847 4.395494 6.508788 1.546913 4.135591 -0.927398 -22.209657 -1.483412 4.398400 0.627471 -20.131810 -9.199649 -20.909656 -3.681166 -69.699836 -14.264572 24.183992 30.989208 -79.785498 -0.272033 6.134768 -2.480148 -19.113048 -16.845463 33.584204 -4.917187 -16.584251 15.621080 -36.206276 -1.115637 9.955672 -15.218804 -10.260397 10.822137 17.833701 
-0.147790 0.180755 0.913855 119.394051 -26.993981 132.849566 1.133939 -1.115158 -22.159175 -7.579438 -10.642214 25.949354 -13.560877 4.024840 12.222493 0.000000 -0.000000 0.000000 -26.700623 -12.969966 -75.920622 -3.880478 -13.717216 49.164593 -1.049566 -11.688070 -17.621853 0.000000 -0.000000 0.000000 16.627390 -12.942506 49.445665 -2.591347 9.222666 4.703171 6.519677 1.629983 4.271646 -0.429266 -22.608513 -1.850378 4.718781 1.315962 -20.969263 -8.552774 -21.116221 -4.294486 -70.306934 -14.235854 24.727760 41.958325 -80.530238 -11.287315 5.321636 -2.335363 -19.271839 -18.321057 34.154787 -5.998739 -18.101405 15.808005 -37.730430 -0.794876 7.576987 -16.217138 -5.657526 8.206808 20.823966 
-0.144721 0.179773 0.912007 119.258341 -26.757884 133.361094 0.743362 -1.625048 -22.581048 -7.628370 -11.103017 26.350777 -13.818394 3.549689 12.212196 0.000000 -0.000000 0.000000 -26.676409 -12.632910 -76.386084 -3.999950 -13.907196 49.444354 -0.967464 -11.449894 -17.687578 0.000000 -0.000000 0.000000 16.522991 -13.217198 49.946702 -2.787551 9.182476 4.917245 6.478028 1.747521 4.174327 -0.224250 -22.574958 -1.968594 5.014223 1.917187 -21.639515 -7.934032 -21.356434 -4.709771 -70.774796 -14.127466 24.848793 54.362753 -81.170425 -23.451820 4.742423 -2.543954 -19.791962 -19.687763 34.632806 -6.882100 -18.061210 16.111612 -38.821508 -0.980665 6.322805 -17.450513 -2.338399 6.574414 21.199518 
-0.142712 0.178960 0.912012 119.438087 -26.433381 133.376354 0.490800 -2.304719 -22.971841 -7.584433 -11.054270 26.367098 -14.041001 3.308829 12.579145 0.000000 -0.000000 0.000000 -26.434888 -12.429911 -76.364109 -3.771703 -13.996092 49.419002 -1.085283 -11.447156 -17.650460 0.000000 -0.000000 0.000000 16.498932 -13.292459 50.112892 -2.682018 9.067423 5.396360 6.484190 1.693812 4.055883 0.164274 -22.570739 -2.341604 5.155782 2.254964 -21.549020 -7.842326 -21.672079 -4.893196 -70.804255 -14.231922 25.068746 68.583680 -81.211388 -37.870359 3.676008 -2.706391 -20.162842 -19.672334 35.021545 -6.837498 -18.407759 16.197315 -39.739185 -0.838967 5.859291 -19.114646 2.248702 4.573015 21.040615 
-0.141401 0.178124 0.913126 119.628676 -25.832250 133.208535 0.335651 -2.477423 -23.428595 -7.577167 -10.872279 26.095074 -14.532336 2.663155 12.690769 0.000000 -0.000000 0.000000 -25.978625 -11.980588 -76.070620 -3.909476 -14.392806 49.051474 -1.257445 -11.250555 -17.545904 0.000000 -0.000000 0.000000 16.235427 -13.148899 50.386306 -2.621705 8.768985 5.330370 6.519995 1.818429 3.984788 0.215455 -22.058749 -2.584184 5.409926 2.217445 -21.227707 -7.636586 -21.555293 -5.228546 -70.928945 -14.087888 25.126920 79.207036 -81.257492 -48.608221 3.121086 -2.887242 -20.955869 -19.167294 35.128886 -6.868896 -17.100709 17.070429 -39.205036 -0.900094 6.659595 -18.660180 4.840206 3.779179 20.384768 
-0.140578 0.177769 0.915512 119.879846 -25.149292 132.485229 0.105027 -2.524519 -23.558480 -7.457599 -10.557977 25.586523 -15.001628 1.958712 12.637434 0.000000 -0.000000 0.000000 -25.541190 -11.391186 -75.227676 -4.062446 -14.823599 48.591878 -0.879153 -10.494659 -17.288280 0.000000 -0.000000 0.000000 15.740545 -13.078797 51.009766 -2.605540 8.455023 5.079329 6.513807 1.906490 3.890331 0.301677 -21.435763 -3.327102 5.506544 1.949304 -20.565944 -7.736543 -21.014906 -5.574869 -70.989710 -13.938755 25.227216 87.826591 -81.111788 -57.643442 2.398210 -3.069036 -21.596307 -18.194556 34.900730 -6.319830 -15.294269 18.379789 -38.162230 -0.735954 7.943686 -18.306198 6.634577 2.710163 19.058579 
-0.140132 0.177837 0.919321 120.219569 -24.314710 131.298523 -0.030884 -2.351945 -23.394624 -7.504233 -10.311856 24.983181 -15.778661 1.100276 12.559817 0.000000 -0.000000 0.000000 -24.824677 -10.639272 -73.822066 -4.336301 -15.244660 47.787644 -0.824920 -9.732561 -17.028402 0.000000 -0.000000 0.000000 15.383499 -12.854618 51.497783 -2.501197 8.123916 5.148672 6.502039 2.018717 3.548501 0.144094 -20.703645 -3.926532 5.762309 1.711703 -20.042491 -7.994237 -21.108479 -5.788673 -70.959484 -13.536619 25.298887 93.991803 -80.319474 -64.270582 1.333977 -3.307497 -21.979352 -17.180641 34.867049 -6.031449 -12.239365 19.252286 -36.299809 -0.905045 9.551962 -19.021299 10.233148 0.715302 14.816637 
-0.140547 0.178114 0.924972 120.433135 -23.343895 129.967450 -0.255558 -2.210382 -23.187942 -7.581727 -10.412552 24.463487 -16.115614 0.018709 11.973601 0.000000 -0.000000 0.000000 -23.746801 -9.519035 -71.984105 -4.419181 -14.962154 46.102114 -1.046391 -9.615445 -16.215844 0.000000 -0.000000 0.000000 14.886517 -12.607946 52.096732 -2.511392 7.829627 4.760286 6.442948 2.145961 3.301923 -0.266459 -20.122103 -4.553861 5.851040 1.527521 -19.018673 -8.314553 -20.862755 -5.932744 -70.848602 -13.153286 25.330511 95.725422 -79.887484 -66.007472 0.506092 -3.637489 -22.090540 -16.101777 34.885719 -5.867622 -8.404221 20.212935 -34.158166 -0.993530 10.297480 -21.042195 14.827552 -0.521924 8.719139 
-0.141161 0.178694 0.931480 120.717283 -22.123387 128.222728 -0.225074 -2.073820 -22.651109 -7.668517 -10.708984 24.177576 -15.744069 -1.019563 9.718524 0.000000 -0.000000 0.000000 -22.447361 -8.435289 -69.656225 -4.409534 -14.980677 44.196532 -0.766645 -9.043919 -15.561351 0.000000 -0.000000 0.000000 14.411379 -12.125338 52.600903 -2.299291 7.651425 4.674530 6.584124 2.278479 2.885025 -0.749871 -19.619266 -5.112007 5.804258 1.219627 -18.370585 -8.683601 -20.527081 -6.341504 -71.009663 -12.712538 25.461820 92.365860 -79.723987 -62.614656 0.102520 -3.977765 -22.053765 -14.719137 34.752656 -5.810631 -4.236033 21.022666 -31.681349 -0.990371 10.805699 -22.709045 18.272344 -0.938013 3.417235 
